<svg xmlns="http://www.w3.org/2000/svg" version="1.0" width="1024.000000pt" height="1024.000000pt" viewBox="0 0 1024.000000 1024.000000" preserveAspectRatio="xMidYMid meet">

<g transform="translate(0.000000,1024.000000) scale(0.100000,-0.100000)" fill="#ecddbc" stroke="none">
<path d="M2675 9233 c-431 -39 -804 -190 -1120 -455 -363 -304 -591 -733 -645 -1213 -8 -72 -10 -785 -8 -2510 l4 -2410 26 -122 c87 -399 262 -721 539 -988 251 -242 522 -393 863 -480 276 -70 108 -66 2846 -63 l2465 3 116 23 c417 80 764 262 1044 547 238 243 402 528 480 839 63 248 60 117 60 2736 l0 2395 -23 129 c-83 457 -297 831 -637 1115 -226 188 -503 329 -777 396 -260 64 -51 59 -2743 61 -1347 0 -2468 -1 -2490 -3z m4896 -373 c383 -39 696 -186 959 -449 225 -226 350 -459 423 -785 l22 -101 0 -2395 0 -2395 -22 -116 c-90 -466 -387 -866 -799 -1076 -116 -59 -207 -93 -342 -127 -227 -58 -124 -56 -2685 -56 -2565 0 -2459 -2 -2697 56 -139 35 -243 74 -371 140 -354 184 -633 539 -739 941 -57 214 -54 81 -58 2538 -3 2347 -2 2416 38 2615 57 278 188 532 378 732 132 138 256 230 428 316 173 86 375 143 574 161 135 13 4769 13 4891 1z" fill="#ecddbc"/>
<path d="M5978 8275 c-19 -13 -41 -39 -47 -56 -7 -19 -11 -110 -11 -228 0 -177 2 -199 20 -228 27 -44 64 -66 113 -66 54 0 102 25 124 66 16 28 18 60 18 237 0 182 -2 209 -18 233 -44 68 -134 87 -199 42z" fill="#ecddbc"/>
<path d="M4065 7889 c-329 -58 -652 -195 -925 -393 -600 -434 -949 -1195 -891 -1946 49 -633 383 -1214 926 -1606 336 -243 772 -393 1197 -411 l137 -6 3 -546 3 -546 24 -60 c63 -158 163 -250 318 -290 84 -22 1101 -22 1248 0 345 51 592 221 755 520 48 86 48 87 175 160 406 235 729 581 939 1005 160 323 226 616 226 1004 0 323 -42 559 -147 826 -55 138 -88 206 -161 325 -250 412 -680 773 -1089 915 l-91 32 -7 44 c-27 183 -168 382 -330 466 -206 107 -407 111 -611 13 -139 -67 -280 -227 -331 -374 l-18 -53 -265 5 c-150 2 -289 0 -320 -5 -156 -27 -282 -171 -310 -353 -7 -47 -10 -478 -8 -1328 2 -691 0 -1257 -3 -1257 -11 0 -266 267 -320 335 -281 356 -445 748 -515 1230 -22 149 -25 535 -6 670 43 300 121 569 233 794 120 243 299 486 445 604 80 66 104 115 80 170 -24 58 -65 77 -166 76 -47 0 -134 -9 -195 -20z m2090 -1239 c580 -55 1108 -379 1415 -870 124 -198 214 -439 256 -685 22 -130 29 -409 15 -546 -68 -639 -482 -1228 -1071 -1524 -58 -29 -113 -61 -123 -72 -9 -11 -32 -59 -51 -106 -19 -48 -46 -106 -59 -130 -42 -71 -147 -162 -240 -206 -176 -86 -348 -104 -932 -99 -379 3 -402 4 -434 23 -18 11 -42 36 -52 55 -18 34 -19 103 -19 2048 0 2012 0 2013 21 2053 35 70 20 68 624 69 299 0 589 -5 650 -10z" fill="#ecddbc"/>
<path d="M5570 6284 c-317 -85 -416 -497 -174 -728 200 -192 544 -126 669 127 63 128 65 237 6 363 -89 191 -301 292 -501 238z m176 -280 c91 -43 106 -175 29 -243 -29 -25 -44 -31 -84 -31 -113 0 -184 113 -132 210 38 72 115 98 187 64z" fill="#ecddbc"/>
<path d="M6553 5470 c-13 -5 -32 -24 -43 -42 -19 -31 -20 -51 -20 -351 0 -349 2 -362 60 -392 24 -12 81 -15 337 -15 291 0 310 1 341 20 59 36 62 56 62 385 0 315 -3 338 -50 380 -21 19 -38 20 -344 22 -178 1 -331 -2 -343 -7z" fill="#ecddbc"/>
<path d="M5638 4401 l-33 -29 -3 -321 c-2 -274 -1 -325 13 -351 30 -58 42 -60 391 -60 l316 0 34 34 34 34 0 327 0 327 -34 34 -34 34 -326 0 -326 0 -32 -29z" fill="#ecddbc"/>
<path d="M6524 4396 l-34 -34 0 -316 c0 -342 2 -355 54 -390 22 -14 65 -16 344 -16 434 0 402 -32 402 400 0 312 -4 341 -51 374 -21 14 -64 16 -352 16 l-329 0 -34 -34z" fill="#ecddbc"/>
<path d="M5638 3461 l-33 -29 -3 -314 c-4 -349 0 -377 51 -408 30 -19 52 -20 335 -20 335 0 358 4 387 61 20 37 22 643 3 684 -24 53 -40 55 -387 55 l-321 0 -32 -29z" fill="#ecddbc"/>
<path d="M5075 7886 c-16 -7 -38 -23 -48 -34 -22 -24 -33 -88 -22 -129 7 -31 242 -275 287 -299 60 -31 139 -6 178 58 43 71 16 130 -121 265 -156 152 -197 173 -274 139z" fill="#ecddbc"/>
<path d="M6920 7889 c-30 -12 -266 -243 -286 -281 -59 -112 64 -242 174 -184 15 8 87 75 160 149 138 139 140 143 132 222 -7 73 -104 124 -180 94z" fill="#ecddbc"/>
</g>
</svg>