<svg xmlns="http://www.w3.org/2000/svg" width="200" height="20" viewBox="0 0 200 20">
  <defs>
<linearGradient id="goldGradient" x1="0%" y1="0%" x2="100%" y2="100%">
  <stop offset="0%" stop-color="#D9B76E"/>
  <stop offset="35%" stop-color="#EAD39C"/>
  <stop offset="55%" stop-color="#B9924E"/>
  <stop offset="100%" stop-color="#D9B76E"/>
</linearGradient>

<filter id="softShadow" x="-50%" y="-50%" width="200%" height="200%">
  <feDropShadow dx="0" dy="2" stdDeviation="2" flood-color="#071E22" flood-opacity="0.55"/>
</filter>
</defs>
  <path d="M10 10 L16 4 L22 10 L16 16 Z" fill="url(#goldGradient)"/><path d="M30 10 L36 4 L42 10 L36 16 Z" fill="url(#goldGradient)"/><path d="M50 10 L56 4 L62 10 L56 16 Z" fill="url(#goldGradient)"/><path d="M70 10 L76 4 L82 10 L76 16 Z" fill="url(#goldGradient)"/><path d="M90 10 L96 4 L102 10 L96 16 Z" fill="url(#goldGradient)"/><path d="M110 10 L116 4 L122 10 L116 16 Z" fill="url(#goldGradient)"/><path d="M130 10 L136 4 L142 10 L136 16 Z" fill="url(#goldGradient)"/><path d="M150 10 L156 4 L162 10 L156 16 Z" fill="url(#goldGradient)"/>
</svg>