<?xml version="1.0" encoding="UTF-8"?>
<svg version="1.1" xmlns="http://www.w3.org/2000/svg" width="729" height="790">
<path d="M0 0 C5.96584532 0.78519489 11.55406263 2.82042434 17.125 5 C40.95882517 13.9944892 65.2747252 20.95268147 90 27 C90.12246094 25.90429688 90.24492187 24.80859375 90.37109375 23.6796875 C91.1553793 19.09088632 92.25045183 17.7124391 96 15 C102.00701467 13.81743695 106.96759286 14.18123504 112.94433594 15.29174805 C114.22926186 15.51597694 114.22926186 15.51597694 115.54014587 15.74473572 C118.35699583 16.23922126 121.17056065 16.75026586 123.984375 17.26171875 C125.96510128 17.61324707 127.94600074 17.9638008 129.92706299 18.31343079 C135.1425161 19.23686712 140.35528979 20.1746691 145.56768799 21.11517334 C149.76958636 21.87086871 153.97326254 22.61636019 158.17708969 23.36123943 C163.25931964 24.2620077 168.34070516 25.1674917 173.421875 26.07421875 C174.3640966 26.24224188 175.30631821 26.41026501 176.27709198 26.58337975 C181.64138523 27.5422739 187.00149519 28.52112067 192.35887146 29.51791 C195.09572453 30.01747277 197.83666247 30.48841808 200.57873535 30.95840454 C202.37717608 31.2824387 204.17548061 31.60722989 205.97363281 31.93286133 C206.79419537 32.06659747 207.61475792 32.20033361 208.460186 32.33812237 C214.6500377 33.4943083 218.70165029 35.65694588 222.375 41 C223.12563723 43.40203915 223.04118253 45.49610226 223 48 C224.46767319 47.98120789 224.46767319 47.98120789 225.96499634 47.96203613 C235.28816255 47.84284671 244.6113467 47.7251557 253.93454933 47.60884857 C258.72509322 47.54904053 263.51562984 47.48874521 268.30615234 47.42724609 C309.03949423 46.90498483 309.03949423 46.90498483 327 47 C328.12564269 49.62472638 329.25066146 52.24971509 330.375 54.875 C330.94976074 56.21667236 330.94976074 56.21667236 331.53613281 57.58544922 C333.67774265 62.66048247 335.67049027 67.76597656 337.546875 72.9453125 C337.97564941 74.11465332 338.40442383 75.28399414 338.84619141 76.48876953 C339.68927298 78.80362237 340.51492381 81.12490873 341.32177734 83.45263672 C341.71316895 84.5201416 342.10456055 85.58764648 342.5078125 86.6875 C342.84441895 87.64011719 343.18102539 88.59273438 343.52783203 89.57421875 C346.78592868 94.94278398 354.0598452 96.11205539 359.77734375 97.86328125 C360.639077 98.1314566 361.50081024 98.39963196 362.38865662 98.67593384 C365.23661967 99.56022348 368.08696825 100.43652919 370.9375 101.3125 C372.95725163 101.93739519 374.97694458 102.56248006 376.99658203 103.18774414 C390.13065661 107.24357083 403.29690752 111.18506523 416.47918701 115.08087158 C432.91631269 119.94323977 449.33960796 124.85404352 465.70025635 129.96853638 C467.74811002 130.60611361 469.79784236 131.23769288 471.84954834 131.86276245 C497.71316818 139.7571984 497.71316818 139.7571984 504.8828125 151.828125 C508.8883087 159.6150337 509.46067216 168.73114685 507.125 177.15625 C494.44035699 209.53547031 459.07918545 229.98607437 429 244 C428.33178223 244.31259766 427.66356445 244.62519531 426.97509766 244.94726562 C416.1936585 249.91027264 405.04567985 253.82903389 393.8125 257.625 C393.15790802 257.84902496 392.50331604 258.07304993 391.82888794 258.30386353 C382.8036894 261.37818611 373.70233229 263.89019725 364.4440918 266.16943359 C363.33953392 266.44337448 362.23497604 266.71731537 361.09694672 266.9995575 C358.39847962 267.66848433 355.69949834 268.33524944 353 269 C352.99918285 270.05299569 352.99918285 270.05299569 352.99834919 271.12726402 C352.98335697 288.23858011 352.94081177 305.34960792 352.86790943 322.46077538 C352.83331248 330.7357615 352.80791088 339.01058197 352.80444336 347.28564453 C352.80139607 354.50142193 352.78080327 361.71690388 352.73947543 368.93256724 C352.71821267 372.75038541 352.70550985 376.56778428 352.71384621 380.38566208 C352.7214295 383.98594985 352.70539286 387.58539105 352.67193985 391.18552399 C352.65988276 393.12302994 352.67223982 395.06064076 352.68556213 396.99813843 C352.56579813 406.20245168 350.47122642 412.68442121 344.6875 419.875 C337.85482855 425.27757743 331.90329187 426.62256267 323.2882843 426.74092102 C322.21091013 426.76948632 321.13353596 426.79805161 320.02351409 426.82748252 C316.34892538 426.91273808 312.67536848 426.96141543 309 427 C307.02223466 427.02161969 307.02223466 427.02161969 305.00451446 427.04367614 C295.00086574 427.14179053 284.99740425 427.14826974 274.99336183 427.14538372 C270.49523076 427.1451765 265.99710577 427.15072792 261.49897766 427.15544128 C252.72657402 427.16367552 243.95417711 427.16649267 235.18176993 427.16705366 C228.05050855 427.16753157 220.91924935 427.16959988 213.78798866 427.17275429 C193.52159372 427.18153524 173.25520403 427.18617681 152.98880716 427.18542381 C151.35695626 427.18536388 151.35695626 427.18536388 149.69213867 427.18530273 C148.60289647 427.18526185 147.51365427 427.18522097 146.39140473 427.18517885 C128.69574234 427.18477143 111.00010113 427.19437186 93.30444487 427.2084411 C75.08779406 427.22280946 56.87115359 427.22971127 38.65449697 427.22884732 C28.44536236 427.22851588 18.23625006 427.23124094 8.02712059 427.24202538 C-0.65147491 427.25113563 -9.33003794 427.25330069 -18.00863615 427.24651595 C-22.43147624 427.24325558 -26.85425404 427.24317705 -31.27708817 427.2518692 C-35.33103323 427.25975456 -39.38486682 427.25828217 -43.43880924 427.24958507 C-44.89923536 427.24805476 -46.3596699 427.24984843 -47.8200861 427.25544515 C-71.64024251 427.34063427 -71.64024251 427.34063427 -79.31640625 420.765625 C-88.65497999 410.97203955 -88.28844778 399.53244883 -88.22705078 386.76171875 C-88.22648604 385.11523953 -88.22680446 383.46875981 -88.22793579 381.82228088 C-88.22850784 377.37037272 -88.21677747 372.91857309 -88.20278788 368.46669006 C-88.19025588 363.80755163 -88.18910807 359.1484105 -88.18673706 354.48925781 C-88.18052954 345.67446607 -88.16412859 336.85972414 -88.14403808 328.0449543 C-88.1216564 318.0062727 -88.11067995 307.96758868 -88.10064721 297.92888832 C-88.07976171 277.28589778 -88.04459991 256.64295203 -88 236 C-88.68363176 235.79902427 -89.36726353 235.59804853 -90.0716114 235.39098263 C-90.96999166 235.12466817 -91.86837193 234.85835371 -92.79397583 234.58396912 C-93.68385759 234.32111838 -94.57373936 234.05826765 -95.49058723 233.78745174 C-98.5103313 232.83985844 -101.32248132 231.64408318 -104.1796875 230.28515625 C-105.2632251 229.77025635 -106.3467627 229.25535645 -107.46313477 228.72485352 C-108.58905029 228.17627686 -109.71496582 227.6277002 -110.875 227.0625 C-112.05956787 226.4862085 -113.24413574 225.90991699 -114.46459961 225.31616211 C-135.240616 215.11121987 -154.03228688 202.71294088 -170.95703125 186.8671875 C-173.03836349 184.91921917 -173.03836349 184.91921917 -175.55859375 182.984375 C-177.72810892 181.22099307 -179.45563696 179.5046733 -181.25 177.375 C-183.13640753 175.15593566 -185.02619734 172.97228836 -187.02734375 170.85546875 C-204.54781876 152.25778551 -222.01180018 126.37644728 -221.5222168 99.88256836 C-221.06301047 90.99386803 -217.86949815 85.52209192 -212.171875 78.921875 C-206.39051091 73.80599167 -200.67274578 71.20798356 -193.11328125 69.9140625 C-192.25245438 69.75491364 -191.3916275 69.59576477 -190.50471497 69.43179321 C-179.12065087 67.38841701 -167.65117033 65.88935976 -156.1875 64.375 C-153.67997553 64.03852799 -151.17248966 63.70176816 -148.66503906 63.36474609 C-133.05814888 61.27844542 -117.43954479 59.28866072 -101.81640625 57.328125 C-100.00843717 57.10092908 -98.20046903 56.87372572 -96.39250183 56.64651489 C-88.36326542 55.63827613 -80.33362658 54.6337741 -72.30198574 53.64485168 C-68.9553115 53.23186542 -65.60918291 52.81457219 -62.26315117 52.39641571 C-60.70046137 52.20220748 -59.13752358 52.00998282 -57.57432747 51.81989288 C-55.41900834 51.55766481 -53.26463965 51.28861585 -51.11035156 51.01806641 C-49.90042542 50.86898834 -48.69049927 50.71991028 -47.44390869 50.5663147 C-40.72570155 49.59659001 -40.72570155 49.59659001 -35.07885742 46.21923828 C-34.59263916 45.51009277 -34.1064209 44.80094727 -33.60546875 44.0703125 C-32.76894775 42.88659058 -32.76894775 42.88659058 -31.91552734 41.67895508 C-31.34527832 40.8361499 -30.7750293 39.99334473 -30.1875 39.125 C-28.95737917 37.37942632 -27.72430282 35.63593167 -26.48828125 33.89453125 C-25.89225098 33.04842285 -25.2962207 32.20231445 -24.68212891 31.33056641 C-22.53921211 28.36158473 -20.25642573 25.59403603 -17.875 22.8125 C-12.75099785 16.81034107 -8.06695605 10.5134066 -3.37109375 4.17578125 C-1 1 -1 1 0 0 Z M8.359375 30.36328125 C7.82828125 31.00652344 7.2971875 31.64976562 6.75 32.3125 C6.15058594 33.03824219 5.55117187 33.76398438 4.93359375 34.51171875 C0.02909298 40.82316722 -4.64993727 47.29365329 -9 54 C-3.08913514 56.76146339 2.8100788 59.04791914 9.046875 60.953125 C10.30942863 61.34546326 10.30942863 61.34546326 11.5974884 61.74572754 C14.31304017 62.58697426 17.03123059 63.41921589 19.75 64.25 C20.6781955 64.53524536 21.60639099 64.82049072 22.56271362 65.11437988 C34.52564472 68.78902233 46.5088582 72.38389713 58.5625 75.75 C60.27808105 76.23388184 60.27808105 76.23388184 62.02832031 76.72753906 C68.0421397 78.37164409 73.78263313 79.50417641 80 80 C80.67336904 76.10529437 81.33751584 72.20907067 82 68.3125 C82.28617188 66.65831055 82.28617188 66.65831055 82.578125 64.97070312 C82.84882813 63.3706543 82.84882813 63.3706543 83.125 61.73828125 C83.29257812 60.75899658 83.46015625 59.77971191 83.6328125 58.77075195 C83.98132935 56.14088643 84.06764613 53.64876878 84 51 C82.99026123 50.71390869 81.98052246 50.42781738 80.94018555 50.13305664 C29.39177488 35.4993785 29.39177488 35.4993785 16.43383789 29.88891602 C13.36093576 28.76659315 11.0217384 28.15098404 8.359375 30.36328125 Z M115 48 C114.15578139 52.7451174 113.32001091 57.49162454 112.49145508 62.23950195 C112.20949496 63.84861642 111.92537875 65.45735484 111.63891602 67.06567383 C109.9223801 76.71254557 108.49483715 86.20004931 108 96 C112.58238113 97.373248 117.06509356 98.45212645 121.78979492 99.25268555 C122.42812759 99.36187317 123.06646027 99.47106079 123.72413635 99.58355713 C125.80888705 99.93885428 127.89457988 100.28817035 129.98046875 100.63671875 C131.44063765 100.8827613 132.90078646 101.12892311 134.36091614 101.37519836 C137.40900028 101.88818207 140.45761785 102.39785074 143.5065918 102.90551758 C147.41189844 103.55631699 151.31522054 104.21829348 155.2181654 104.88309002 C158.2275319 105.3939118 161.23809637 105.89736793 164.24904823 106.39875221 C165.68917947 106.63975664 167.12887382 106.88338709 168.5681057 107.12970543 C170.57690102 107.47266701 172.58761392 107.80433923 174.59838867 108.13549805 C176.31211922 108.42290108 176.31211922 108.42290108 178.06047058 108.71611023 C180.75752709 108.97658279 182.46797923 108.87681703 185 108 C185.7188467 102.73559503 186.43067827 97.47030481 187.13623047 92.20410156 C187.37685108 90.41543451 187.61933438 88.62701695 187.86376953 86.83886719 C188.21625542 84.25780724 188.56187131 81.67590264 188.90625 79.09375 C189.0156189 78.30383667 189.12498779 77.51392334 189.2376709 76.70007324 C189.88891756 71.75452971 190.09937546 66.98864791 190 62 C171.95386446 58.4705384 153.90396546 54.96101158 135.8387146 51.5305481 C134.19652636 51.21857077 132.55445658 50.90596922 130.9125061 50.59274292 C128.61650019 50.15501004 126.3200474 49.71970762 124.0234375 49.28515625 C123.33862808 49.15424591 122.65381866 49.02333557 121.94825745 48.88845825 C118.49781139 48.22429978 118.49781139 48.22429978 115 48 Z M219 72 C218.70218959 73.65506311 218.46142846 75.32048153 218.24609375 76.98828125 C218.04790039 78.51291992 218.04790039 78.51291992 217.84570312 80.06835938 C217.71099609 81.13892578 217.57628906 82.20949219 217.4375 83.3125 C217.29892578 84.37146484 217.16035156 85.43042969 217.01757812 86.52148438 C216.4777825 90.73082658 216 94.7492567 216 99 C226.84950703 100.11429939 237.57830576 100.06397109 248.46875 99.9140625 C250.32148821 99.8922403 252.17423087 99.87079324 254.02697754 99.84970093 C257.88294993 99.80452695 261.73884324 99.7553384 265.59472656 99.703125 C270.5318098 99.63652931 275.46894915 99.57937929 280.40618134 99.52509499 C284.22034292 99.48225372 288.03443693 99.43483871 291.848526 99.38599777 C293.66974785 99.36315291 295.4909869 99.34163749 297.3122406 99.32149124 C299.85082349 99.29265086 302.3892523 99.25773969 304.92773438 99.22119141 C305.67479645 99.2138649 306.42185852 99.20653839 307.19155884 99.19898987 C310.90952229 99.13888192 314.38262502 98.88132992 318 98 C316.37212884 91.55052949 314.04233323 85.514865 311.375 79.4375 C310.90501587 78.36532227 310.90501587 78.36532227 310.42553711 77.27148438 C309.0881008 73.89742214 309.0881008 73.89742214 307 71 C304.29699701 70.89953197 301.61951654 70.86383548 298.91601562 70.87060547 C298.06891525 70.86885315 297.22181488 70.86710083 296.3490448 70.86529541 C293.53475934 70.86087591 290.72053616 70.86381523 287.90625 70.8671875 C285.95951322 70.86651449 284.01277653 70.86554449 282.06604004 70.86428833 C277.98037925 70.86281122 273.89474029 70.86496632 269.80908203 70.86962891 C264.55953484 70.8753262 259.31003878 70.87204726 254.06049347 70.86605644 C250.03891613 70.86245117 246.01735101 70.86358926 241.99577332 70.86618423 C240.05958551 70.8668536 238.12339661 70.86602475 236.18721008 70.86370468 C233.48610476 70.86117871 230.78508341 70.86501795 228.08398438 70.87060547 C227.27563644 70.86858124 226.46728851 70.86655701 225.63444519 70.86447144 C222.01939891 70.53813617 222.01939891 70.53813617 219 72 Z M-38.4453125 77.50390625 C-39.43355011 77.66260696 -40.42178772 77.82130768 -41.43997192 77.9848175 C-43.56438899 78.32652971 -45.6882695 78.67159167 -47.81164551 79.01971436 C-53.49411831 79.95060318 -59.18081455 80.855013 -64.8671875 81.76171875 C-66.0337085 81.94829041 -67.20022949 82.13486206 -68.40209961 82.3270874 C-80.66944683 84.28162842 -92.95652673 86.09332138 -105.25 87.875 C-106.24453186 88.01970734 -107.23906372 88.16441467 -108.26373291 88.31350708 C-119.50003015 89.94757392 -130.74042855 91.53411478 -142 93 C-142 93.66 -142 94.32 -142 95 C-112.24149689 110.97594093 -81.68839807 125.27042471 -50 137 C-48.87932129 137.41797852 -47.75864258 137.83595703 -46.60400391 138.26660156 C15.29609687 161.24219801 79.95900711 177.43057349 145.8828125 182.6171875 C147.11515279 182.71420897 147.11515279 182.71420897 148.37238884 182.81319046 C167.39389499 184.27021756 186.38331985 184.46138455 205.45239258 184.39111328 C210.12932307 184.37401038 214.80574138 184.3842219 219.48265457 184.40143681 C244.13428415 184.47818909 268.46451934 183.35967328 293 181 C295.12668293 180.80440397 297.25338887 180.60905785 299.38012695 180.4140625 C304.46827589 179.93425453 309.54767783 179.39539802 314.625 178.8125 C315.51823975 178.71018066 316.41147949 178.60786133 317.33178711 178.50244141 C353.08969488 174.34100098 387.84400971 166.71915381 422.68359375 157.7578125 C423.65546127 157.50915436 424.6273288 157.26049622 425.62864685 157.00430298 C429.87142604 155.89896002 433.9829459 154.79205335 438 153 C437.10014194 150.62151052 437.10014194 150.62151052 433.82104492 149.87768555 C432.37650812 149.45599305 430.92939608 149.04306923 429.48046875 148.63671875 C428.29636162 148.29427628 428.29636162 148.29427628 427.08833313 147.94491577 C424.45669999 147.18537776 421.82211111 146.43663646 419.1875 145.6875 C417.3486963 145.15838046 415.51015832 144.62833672 413.671875 144.09741211 C410.78213829 143.26288854 407.89225126 142.42893189 405.0015564 141.59773254 C395.09597466 138.74841543 385.21145612 135.82917136 375.32901001 132.90078735 C372.57396531 132.08441727 369.81865914 131.26893709 367.06323242 130.45385742 C366.19308502 130.19636215 365.32293762 129.93886688 364.42642212 129.67356873 C362.72395623 129.17033656 361.02122353 128.66800606 359.31820679 128.16664124 C355.26848773 126.97348946 351.22438312 125.76594259 347.18920898 124.52441406 C346.42342529 124.2916124 345.6576416 124.05881073 344.86865234 123.81895447 C343.44716301 123.38639493 342.02745317 122.94791763 340.61010742 122.50196838 C332.71801598 120.11655038 325.25617257 120.7310722 317.13442993 121.24424744 C305.20069462 121.99046297 293.29048042 122.21166234 281.3359375 122.31640625 C279.32141764 122.33704298 277.30690146 122.35804083 275.29238892 122.37937927 C270.05492169 122.43390788 264.81742005 122.48361471 259.57989502 122.53222656 C254.20948313 122.58295547 248.83911966 122.63836998 243.46875 122.69335938 C232.97920827 122.80009093 222.48962404 122.90171529 212 123 C211.71974976 124.24390503 211.71974976 124.24390503 211.43383789 125.51293945 C211.17852295 126.59792725 210.92320801 127.68291504 210.66015625 128.80078125 C210.41144775 129.87755127 210.16273926 130.95432129 209.90649414 132.0637207 C208.68133763 136.03219831 207.28968258 137.55382577 204 140 C197.91438194 143.04280903 188.61967202 140.52094174 182.15234375 139.49609375 C181.11880264 139.33748367 180.08526154 139.1788736 179.020401 139.01545715 C175.65823416 138.49688983 172.29783908 137.96777261 168.9375 137.4375 C166.60092561 137.07315142 164.26433693 136.7088945 161.92773438 136.34472656 C142.9158655 133.36547107 123.94438182 130.18007307 105.01318359 126.72558594 C101.4363201 126.07451426 97.85393226 125.45987116 94.26953125 124.8515625 C92.45028561 124.52735885 90.63124707 124.20198897 88.8125 123.875 C88.05259766 123.75286133 87.29269531 123.63072266 86.50976562 123.50488281 C81.61351845 122.58013965 79.15609656 120.81584556 76 117 C74.61773984 114.23547967 74.90474613 111.9538637 74.9375 108.875 C74.94652344 107.77929688 74.95554687 106.68359375 74.96484375 105.5546875 C74.98224609 104.29011719 74.98224609 104.29011719 75 103 C74.01757324 102.75991211 73.03514648 102.51982422 72.02294922 102.27246094 C49.92297381 96.84663159 28.15143328 90.77996419 6.50390625 83.76171875 C5.43556549 83.41694992 5.43556549 83.41694992 4.34564209 83.06521606 C0.78815574 81.91504402 -2.75968648 80.74350182 -6.29736328 79.53369141 C-7.689051 79.07040785 -9.08081241 78.60734558 -10.47265625 78.14453125 C-11.6831665 77.73178955 -12.89367676 77.31904785 -14.14086914 76.89379883 C-22.3397563 74.99488532 -30.2413723 76.12900015 -38.4453125 77.50390625 Z M-11.58984375 248.109375 C-15.19103082 252.42846484 -17.73247677 256.87055425 -20 262 C-20.38800781 262.84949219 -20.77601563 263.69898438 -21.17578125 264.57421875 C-26.90301827 278.50702443 -27.10425726 291.93823777 -22 306 C-15.50826754 321.25638887 -4.46584842 332.7441512 11 339 C23.6913666 344.05910146 40.27788 343.86759374 53 339 C67.56459567 332.7061581 78.1594451 321.21456515 85.2109375 307.14453125 C90.35462379 293.16490861 89.92059481 275.6536166 84 262 C75.83589157 246.8651447 64.25836486 236.4150423 47.75 231.25 C25.36640912 225.1170347 4.31329372 231.35959567 -11.58984375 248.109375 Z M190.625 247.875 C181.78629278 258.96757756 174.92280615 273.27948824 175.7265625 287.83984375 C177.81531127 304.34095904 184.22583935 319.61950791 197.53955078 330.2265625 C210.89231809 340.26778036 225.45617187 343.7159622 242 342 C258.51022784 339.15862678 270.90742768 330.37894964 281.1015625 317.3046875 C290.0943625 304.17902623 291.91319527 289.42692376 289.70263672 273.91308594 C287.20817489 260.70553167 279.10119074 248.14279478 268.3984375 240.02734375 C244.13511358 223.93153309 210.2987777 224.50794995 190.625 247.875 Z M82 362 C79.14701229 365.89592279 78.05667403 369.10738403 77.75 373.9375 C79.19400225 380.91230333 84.7361653 385.53431563 90.375 389.39453125 C107.40539068 400.37714666 126.26878014 404.77338097 146.44433594 401.61767578 C160.53257486 398.49354482 176.69018481 390.11848048 185 378 C186.60608952 374.78782097 186.48016287 371.48442514 186 368 C183.46579412 363.3685203 181.06902315 359.68967438 176 358 C168.9225579 357.29225579 165.07542966 359.13942673 159.125 362.8125 C146.71735569 370.02732937 136.3107083 373.01497179 121.7109375 370.4140625 C114.38170713 368.43171483 108.08972812 365.06599795 101.73071289 360.99829102 C94.84802828 356.77384392 88.35861381 356.21944199 82 362 Z " fill="#F94353" transform="translate(221,217)"/>
<path d="M0 0 C0.89912109 0.7115625 0.89912109 0.7115625 1.81640625 1.4375 C2.51636719 1.94023438 3.21632813 2.44296875 3.9375 2.9609375 C9.48980616 7.3990372 14.73551019 12.07566413 19.91650391 16.93408203 C23.38082536 20.16574802 26.93038809 23.22151383 30.62890625 26.1875 C34.66592873 29.4288195 38.33083243 32.84210692 41.9375 36.55078125 C44.36880013 38.99219073 46.95015535 41.22057897 49.5625 43.46484375 C51.77572854 45.4018982 53.93779516 47.38803181 56.09375 49.38842773 C60.3142945 53.30357342 64.56132371 57.09698309 69.06640625 60.6875 C74.63562105 65.16550435 79.80824004 70.02133566 84.98339844 74.94628906 C89.49331021 79.23354524 94.11666014 83.36001326 98.81640625 87.4375 C104.71127279 92.68139968 110.53614226 98.0014363 116.34350586 103.34179688 C119.58207617 106.31696277 122.84742905 109.25956586 126.12890625 112.1875 C127.69180889 113.60372245 129.2543337 115.02036202 130.81640625 116.4375 C131.91082031 117.3965625 131.91082031 117.3965625 133.02734375 118.375 C133.67960937 118.973125 134.331875 119.57125 135.00390625 120.1875 C135.57496094 120.69796875 136.14601563 121.2084375 136.734375 121.734375 C137.81640625 123.4375 137.81640625 123.4375 137.74609375 125.56640625 C136.39591176 129.73608593 134.59317429 133.6507995 132.75390625 137.625 C131.92157455 139.45038386 131.08954838 141.27590707 130.2578125 143.1015625 C129.63350342 144.46522949 129.63350342 144.46522949 128.99658203 145.85644531 C122.45186857 160.16979051 116.27526478 174.6421068 110.09521484 189.11547852 C109.77978729 189.85378403 109.46435974 190.59208954 109.13937378 191.35276794 C108.52513534 192.79055153 107.91129488 194.22850521 107.29788208 195.66664124 C105.69319426 199.42068964 104.05228127 203.15395795 102.36328125 206.87109375 C100.68376705 210.09540283 100.68376705 210.09540283 100.81640625 212.4375 C101.97088257 211.85633423 101.97088257 211.85633423 103.14868164 211.26342773 C111.6935224 206.96577213 120.24885421 202.68970624 128.81640625 198.4375 C130.17765625 197.76122559 130.17765625 197.76122559 131.56640625 197.07128906 C133.66489871 196.03515841 135.76927489 195.01320532 137.87890625 194 C138.98363281 193.46503906 140.08835937 192.93007812 141.2265625 192.37890625 C143.81640625 191.4375 143.81640625 191.4375 146.81640625 192.4375 C148.31860352 194.4152832 148.31860352 194.4152832 149.8828125 196.98828125 C150.45064453 197.91447266 151.01847656 198.84066406 151.60351562 199.79492188 C152.18939453 200.77009766 152.77527344 201.74527344 153.37890625 202.75 C153.96865234 203.71357422 154.55839844 204.67714844 155.16601562 205.66992188 C157.52049212 209.5351205 159.84656744 213.35943311 161.81640625 217.4375 C150.92692208 223.03442432 139.86952394 228.2321538 128.75244141 233.36035156 C120.61031117 237.12023514 112.51427229 240.96833802 104.44140625 244.875 C95.98865745 248.96175251 87.51117865 252.89115276 78.81640625 256.4375 C77.13445778 254.75555153 77.39189606 252.56960566 77.13964844 250.25830078 C77.01554596 249.13990311 76.89144348 248.02150543 76.76358032 246.86921692 C76.63148163 245.63620346 76.49938293 244.40319 76.36328125 243.1328125 C76.22272308 241.85045212 76.08216492 240.56809174 75.93734741 239.24687195 C75.55417497 235.74643384 75.17698453 232.24537436 74.80112457 228.74414444 C74.56721606 226.57002696 74.33150473 224.39611275 74.09515381 222.22225952 C71.68888043 200.08526684 69.42432671 177.93672365 67.32714844 155.76806641 C67.23116364 154.76137405 67.13517883 153.7546817 67.0362854 152.71748352 C66.85956199 150.86027703 66.68504786 149.0028583 66.51327515 147.14518738 C66.36308912 145.56702716 66.20304583 143.98975254 66.03009033 142.41392517 C65.85418589 140.78693467 65.72338142 139.15513232 65.60498047 137.52294922 C64.96399248 135.19738523 64.96399248 135.19738523 62.4375 133.92700195 C60.86162109 133.30764771 60.86162109 133.30764771 59.25390625 132.67578125 C58.07755615 132.20197021 56.90120605 131.72815918 55.68920898 131.23999023 C54.3984158 130.74296032 53.10747776 130.24630649 51.81640625 129.75 C50.48894269 129.22325149 49.16220735 128.69466435 47.83618164 128.16430664 C45.13065072 127.08564295 42.42116598 126.01803943 39.70751953 124.95996094 C36.23268179 123.60404627 32.77053359 122.21861946 29.3125 120.8203125 C18.04992816 116.26888837 6.7453925 111.82236546 -4.55859375 107.375 C-6.37919312 106.65848267 -6.37919312 106.65848267 -8.23657227 105.92749023 C-9.92351196 105.26535522 -9.92351196 105.26535522 -11.64453125 104.58984375 C-13.14185791 104.0019104 -13.14185791 104.0019104 -14.66943359 103.40209961 C-16.49118202 102.70315534 -18.3324964 102.05453245 -20.18359375 101.4375 C-20.45147705 102.0147583 -20.71936035 102.5920166 -20.99536133 103.18676758 C-22.21357183 105.49428405 -23.58353854 107.39962473 -25.1953125 109.44921875 C-25.78892578 110.20783203 -26.38253906 110.96644531 -26.99414062 111.74804688 C-27.92323242 112.92463867 -27.92323242 112.92463867 -28.87109375 114.125 C-29.47115234 114.89005859 -30.07121094 115.65511719 -30.68945312 116.44335938 C-31.28951172 117.20841797 -31.88957031 117.97347656 -32.5078125 118.76171875 C-33.10770996 119.53177246 -33.70760742 120.30182617 -34.32568359 121.09521484 C-35.59079507 122.69015301 -36.88424671 124.26292446 -38.20166016 125.81494141 C-41.85144465 130.13573644 -41.85144465 130.13573644 -43.890625 135.30859375 C-42.76821935 140.27570383 -40.85662726 144.82014328 -38.87109375 149.5 C-38.39760498 150.63888672 -37.92411621 151.77777344 -37.4362793 152.95117188 C-36.03177644 156.32529507 -34.61149444 159.69260069 -33.18835449 163.05889893 C-32.09874911 165.63835532 -31.01246981 168.21919547 -29.92675781 170.80029297 C-26.26113624 179.51346716 -22.58920664 188.22393726 -18.90284729 196.92835999 C-18.12999059 198.75332397 -17.35755332 200.57846564 -16.58555603 202.40379333 C-14.67163899 206.92861693 -12.75188264 211.45080575 -10.82177734 215.96875 C-10.08167632 217.70832082 -9.34160346 219.44790363 -8.6015625 221.1875 C-8.25587723 221.99219727 -7.91019196 222.79689453 -7.55403137 223.62597656 C-5.18359375 229.2115041 -5.18359375 229.2115041 -5.18359375 231.4375 C-43.62013712 232.04500768 -82.05022341 230.34253283 -120.18359375 225.4375 C-120.98504822 225.3354425 -121.78650269 225.23338501 -122.61224365 225.12823486 C-173.36110844 218.63389908 -223.40958593 207.9087455 -272.18359375 192.4375 C-273.900625 191.90310303 -273.900625 191.90310303 -275.65234375 191.35791016 C-277.29203125 190.83463135 -277.29203125 190.83463135 -278.96484375 190.30078125 C-279.94517578 189.99052002 -280.92550781 189.68025879 -281.93554688 189.3605957 C-284.18359375 188.4375 -284.18359375 188.4375 -285.18359375 186.4375 C-280.51286865 180.89346131 -275.58731263 175.83361731 -270.24609375 170.9375 C-268.82976697 169.62603837 -267.41439047 168.31354967 -266 167 C-265.33500488 166.38253906 -264.67000977 165.76507813 -263.98486328 165.12890625 C-261.83614423 163.11124217 -259.74916897 161.04003383 -257.68359375 158.9375 C-255.37222052 156.58601617 -253.00634397 154.38759452 -250.49609375 152.25 C-246.70023719 148.99319999 -243.19736368 145.49138146 -239.68359375 141.9375 C-235.63171514 137.83947243 -231.53754894 133.90622408 -227.140625 130.17578125 C-224.71906386 128.02489361 -222.4598458 125.74138485 -220.18359375 123.4375 C-216.66093514 119.87730926 -213.08596559 116.4851569 -209.25390625 113.26171875 C-207.11551743 111.42984884 -207.11551743 111.42984884 -205.05078125 109.20703125 C-196.74299657 100.8057506 -186.75383622 96.17445266 -176.26953125 90.97851562 C-171.28863703 88.49122098 -166.36355405 85.8988586 -161.43359375 83.3125 C-159.51186316 82.30961907 -157.58999021 81.30701087 -155.66796875 80.3046875 C-149.90068516 77.2922578 -144.14247881 74.26276722 -138.38793945 71.22607422 C-134.10737877 68.96917388 -129.81974277 66.72680104 -125.5234375 64.5 C-115.87745 59.4971305 -106.25393896 54.48150401 -96.82006836 49.0859375 C-91.49860696 46.07220161 -86.04451801 43.34041057 -80.56974792 40.61914062 C-73.03291688 36.87272423 -65.54122868 33.04082768 -58.05859375 29.1875 C-57.34703125 28.82132568 -56.63546875 28.45515137 -55.90234375 28.07788086 C-46.94151694 23.462455 -38.02144217 18.7855544 -29.18359375 13.9375 C-28.31927734 13.4645752 -27.45496094 12.99165039 -26.56445312 12.50439453 C-22.43151932 10.23766385 -18.31326898 7.94753191 -14.20703125 5.6328125 C-12.65777356 4.77564124 -11.10830581 3.91884951 -9.55859375 3.0625 C-8.86507813 2.66224609 -8.1715625 2.26199219 -7.45703125 1.84960938 C-2.77299799 -0.71433222 -2.77299799 -0.71433222 0 0 Z " fill="#F94353" transform="translate(540.18359375,0.5625)"/>
<path d="M0 0 C48.88528204 -0.04573381 97.77056192 -0.080997 146.65586113 -0.10213066 C152.42145303 -0.1046322 158.18704488 -0.10722084 163.95263672 -0.10986328 C165.6744439 -0.11065021 165.6744439 -0.11065021 167.43103506 -0.11145304 C186.0403536 -0.1201661 204.64965984 -0.13594101 223.25897108 -0.15430559 C242.34036936 -0.17297962 261.42176118 -0.18411142 280.50316823 -0.18817699 C292.28639942 -0.19092725 304.06959586 -0.19962733 315.85281636 -0.21583293 C323.92261383 -0.22636903 331.99239322 -0.22960832 340.06219707 -0.22700275 C344.72463221 -0.22571618 349.38700642 -0.22774893 354.04943085 -0.23841095 C358.31170884 -0.24808726 362.57388446 -0.24867183 366.83616699 -0.24179779 C368.38397366 -0.24094722 369.93178652 -0.24353177 371.47958086 -0.24976636 C373.57212648 -0.25770998 375.66429509 -0.25351743 377.75683403 -0.24609566 C378.92257544 -0.2468551 380.08831686 -0.24761454 381.28938377 -0.24839699 C384 0 384 0 386 2 C365.45079633 34.1486109 338.10032095 60.06240806 305 79 C304.31502441 79.39670898 303.63004883 79.79341797 302.92431641 80.20214844 C251.02863171 109.98879835 190.47918182 115.61857387 133.18359375 100.50390625 C99.3753269 91.06850261 66.77870748 73.86428426 41.03515625 49.8828125 C39.34090437 48.31538562 37.62300939 46.86510793 35.8125 45.4375 C32.88666873 42.90177957 30.46616544 40.21810067 27.96484375 37.2734375 C25.81264127 34.78321515 23.56474826 32.39999575 21.3125 30 C17.16645079 25.44759987 13.34285573 20.7201837 9.625 15.8125 C8.87536987 14.83313477 8.87536987 14.83313477 8.1105957 13.83398438 C7.63323975 13.19396484 7.15588379 12.55394531 6.6640625 11.89453125 C6.24592285 11.33612549 5.8277832 10.77771973 5.39697266 10.20239258 C4.0835983 8.13179663 2.99996235 6.05791359 1.91268921 3.86235046 C1.5540447 3.13972362 1.1954002 2.41709677 0.82588768 1.67257214 C0.41707328 0.84464893 0.41707328 0.84464893 0 0 Z " fill="#F94353" transform="translate(158,681)"/>
</svg>
