<svg xmlns="http://www.w3.org/2000/svg" version="1.0" width="1024.000000pt" height="1024.000000pt" viewBox="0 0 1024.000000 1024.000000" preserveAspectRatio="xMidYMid meet">

<g transform="translate(0.000000,1024.000000) scale(0.100000,-0.100000)" fill="#ecddbc" stroke="none">
<path d="M5078 9230 c-15 -4 -123 -72 -240 -151 -289 -194 -437 -282 -678 -403 -609 -304 -1282 -479 -2077 -540 -195 -15 -226 -24 -265 -77 -11 -14 -23 -43 -28 -65 -13 -54 -13 -2472 0 -2649 65 -903 458 -1771 1188 -2625 216 -252 655 -679 947 -921 289 -239 771 -584 1040 -745 82 -48 107 -59 154 -62 69 -5 88 5 341 173 974 646 1762 1397 2265 2160 424 643 655 1266 720 1944 12 127 15 381 15 1438 0 1258 0 1285 -20 1322 -24 48 -61 78 -109 90 -20 5 -122 16 -227 25 -585 49 -1058 148 -1532 320 -431 157 -788 347 -1237 659 -170 117 -192 127 -257 107z m127 -467 c194 -147 518 -343 770 -464 565 -271 1266 -457 1998 -530 l117 -12 0 -1136 c0 -682 -4 -1194 -11 -1280 -19 -268 -79 -560 -168 -823 -227 -664 -629 -1268 -1275 -1914 -429 -428 -780 -717 -1251 -1029 -262 -174 -256 -170 -303 -148 -114 54 -549 364 -812 578 -1203 981 -1893 1993 -2069 3035 -46 269 -46 276 -46 1525 l0 1190 70 8 c921 104 1475 253 2100 567 246 123 363 192 598 352 198 134 209 137 282 81z" fill="#ecddbc"/>
<path d="M5081 7927 c-24 -12 -71 -68 -414 -492 -205 -254 -243 -295 -274 -295 -13 0 -171 76 -352 169 -180 93 -345 177 -366 185 -62 26 -115 -2 -115 -60 0 -60 190 -1078 206 -1102 8 -13 29 -32 47 -42 31 -19 61 -20 1312 -20 1266 0 1280 0 1313 20 18 11 39 35 46 53 7 17 41 187 75 377 35 190 77 426 95 525 25 135 31 187 23 208 -19 57 -76 62 -168 13 -372 -195 -618 -319 -645 -323 -21 -4 -40 0 -51 8 -14 12 -412 500 -572 700 -68 86 -106 104 -160 76z" fill="#ecddbc"/>
<path d="M4004 5901 c-54 -25 -92 -75 -104 -141 -5 -29 -10 -133 -10 -230 l0 -178 -51 -33 c-64 -41 -130 -128 -154 -204 -13 -44 -16 -77 -13 -139 8 -129 66 -231 168 -297 l49 -32 3 -751 c3 -713 4 -753 22 -789 29 -59 77 -90 144 -95 71 -4 115 17 157 77 l30 43 3 756 3 757 60 38 c157 101 211 324 121 491 -33 60 -108 138 -151 155 l-31 13 0 202 c0 110 -5 218 -11 239 -13 47 -63 106 -106 123 -44 19 -80 17 -129 -5z" fill="#ecddbc"/>
<path d="M5072 5912 c-37 -11 -93 -62 -111 -101 -14 -32 -16 -113 -19 -758 -3 -601 -5 -723 -17 -723 -25 0 -122 -99 -152 -157 -97 -183 -47 -400 117 -512 28 -19 50 -39 50 -45 0 -6 1 -114 3 -241 2 -223 3 -231 27 -273 71 -125 243 -120 311 8 17 31 19 60 19 275 l0 240 45 24 c60 32 110 89 149 170 28 60 31 74 30 161 0 75 -5 105 -22 143 -36 80 -80 135 -142 179 l-60 42 0 715 c0 673 -2 718 -19 756 -22 48 -44 69 -94 90 -38 16 -75 18 -115 7z" fill="#ecddbc"/>
<path d="M6105 5901 c-48 -22 -69 -44 -90 -94 -13 -31 -15 -110 -15 -541 l0 -506 -38 -19 c-53 -27 -129 -112 -158 -176 -35 -75 -42 -181 -19 -260 29 -103 106 -202 183 -236 l32 -14 0 -453 c0 -500 -1 -493 64 -550 43 -38 72 -46 132 -39 56 6 110 47 135 101 17 38 19 73 19 492 l0 452 31 12 c52 22 127 104 162 177 28 61 32 77 32 158 -1 70 -6 103 -24 148 -26 65 -109 162 -165 192 l-36 20 0 505 c0 469 -2 508 -19 545 -22 48 -44 69 -94 90 -48 20 -83 19 -132 -4z" fill="#ecddbc"/>
</g>
</svg>