<svg xmlns="http://www.w3.org/2000/svg" version="1.0" width="1024.000000pt" height="1024.000000pt" viewBox="0 0 1024.000000 1024.000000" preserveAspectRatio="xMidYMid meet">

<g transform="translate(0.000000,1024.000000) scale(0.100000,-0.100000)" fill="#ecddbc" stroke="none">
<path d="M2380 9383 c-183 -15 -463 -94 -630 -178 -492 -246 -839 -711 -935 -1252 -34 -193 -36 -378 -32 -2938 4 -2782 -1 -2574 63 -2819 110 -417 372 -787 729 -1027 181 -122 419 -220 661 -271 l109 -23 2715 -3 c1903 -2 2743 0 2810 8 223 25 397 77 595 175 494 246 834 687 953 1234 l27 126 0 2725 0 2725 -23 113 c-134 662 -614 1177 -1258 1348 -233 62 2 58 -2999 59 -1507 1 -2760 0 -2785 -2z m5600 -336 c272 -65 499 -180 686 -347 265 -237 435 -575 474 -945 8 -81 10 -783 8 -2690 -3 -2440 -4 -2585 -21 -2670 -82 -402 -297 -731 -630 -958 -141 -97 -328 -174 -532 -220 l-100 -22 -2725 0 -2725 0 -113 23 c-329 67 -591 205 -797 423 -209 220 -325 450 -392 774 -16 73 -17 305 -21 2650 -2 1864 0 2601 8 2683 36 358 175 657 420 902 223 224 516 369 825 409 40 5 1256 8 2815 7 2599 -2 2749 -3 2820 -19z" fill="#ecddbc"/>
<path d="M4414 7926 c-25 -21 -29 -33 -40 -128 -14 -124 -38 -185 -89 -224 -47 -36 -131 -43 -221 -20 -89 23 -130 21 -159 -9 -29 -28 -33 -79 -9 -113 8 -12 57 -43 107 -68 166 -83 202 -140 161 -261 -9 -26 -33 -77 -54 -113 -52 -88 -55 -126 -15 -165 17 -17 35 -25 60 -25 33 0 45 9 119 85 81 84 145 124 195 125 47 0 116 -45 198 -127 72 -74 86 -83 118 -83 74 0 109 79 64 145 -41 61 -90 167 -95 209 -8 57 10 109 48 141 17 15 71 46 119 70 48 25 95 55 103 67 24 34 20 85 -9 113 -28 29 -69 32 -160 10 -83 -20 -139 -19 -185 5 -69 35 -110 128 -110 247 0 114 -78 178 -146 119z" fill="#ecddbc"/>
<path d="M6422 7711 c-33 -16 -47 -30 -63 -66 -19 -43 -20 -63 -17 -457 3 -404 3 -414 25 -448 12 -19 35 -43 51 -52 62 -36 155 -14 192 47 19 31 20 49 20 459 0 466 0 463 -58 505 -44 31 -99 35 -150 12z" fill="#ecddbc"/>
<path d="M3630 7189 c-453 -117 -901 -422 -1196 -815 -245 -325 -388 -664 -451 -1064 -25 -162 -25 -567 0 -730 65 -413 230 -794 478 -1101 376 -468 874 -753 1471 -845 156 -24 462 -24 618 0 146 22 296 58 424 103 213 73 482 225 680 382 151 121 347 332 445 480 32 48 36 62 36 117 0 52 -4 67 -24 88 -14 15 -41 31 -60 37 -39 12 -45 10 -201 -55 -204 -84 -390 -119 -645 -119 -93 0 -213 5 -265 12 -888 116 -1551 732 -1700 1582 -28 157 -38 437 -21 576 28 224 85 421 173 598 100 198 215 349 368 481 125 108 152 169 104 238 -40 59 -106 69 -234 35z" fill="#ecddbc"/>
<path d="M5133 7190 c-58 -35 -81 -118 -49 -178 8 -15 147 -158 308 -318 314 -313 318 -316 395 -295 85 23 132 132 87 201 -27 41 -567 580 -596 596 -38 20 -107 18 -145 -6z" fill="#ecddbc"/>
<path d="M7745 7199 c-31 -17 -585 -571 -601 -601 -39 -74 -2 -172 75 -197 86 -27 94 -21 414 297 159 158 295 299 303 314 32 61 4 155 -56 185 -31 16 -108 16 -135 2z" fill="#ecddbc"/>
<path d="M6358 6500 c-298 -51 -547 -269 -623 -546 -9 -32 -19 -104 -22 -159 -8 -141 13 -240 79 -375 45 -91 63 -117 143 -196 80 -81 103 -98 195 -142 164 -78 306 -104 466 -82 113 14 220 50 309 102 84 49 226 189 274 271 88 149 121 346 87 514 -32 160 -94 274 -215 393 -98 97 -166 140 -283 181 -136 46 -283 60 -410 39z" fill="#ecddbc"/>
<path d="M4533 5899 c-97 -29 -122 -169 -43 -244 l31 -30 457 -3 c428 -2 459 -1 491 16 93 50 93 192 0 247 -32 19 -54 20 -469 22 -249 1 -449 -2 -467 -8z" fill="#ecddbc"/>
<path d="M7561 5900 c-18 -4 -47 -22 -64 -38 -24 -25 -31 -41 -35 -85 -5 -65 14 -109 61 -137 30 -19 53 -20 468 -20 l436 0 34 23 c39 26 69 79 69 122 0 43 -32 97 -71 120 -32 19 -54 20 -449 22 -228 1 -430 -2 -449 -7z" fill="#ecddbc"/>
<path d="M5680 5109 c-14 -5 -156 -142 -317 -303 -316 -318 -324 -329 -303 -408 22 -78 87 -118 167 -103 33 6 76 45 341 308 253 253 304 308 313 341 15 55 -2 106 -46 145 -30 26 -44 31 -83 30 -26 0 -58 -5 -72 -10z" fill="#ecddbc"/>
<path d="M7193 5100 c-58 -35 -84 -101 -64 -162 8 -23 102 -124 314 -335 280 -279 305 -302 344 -308 107 -17 200 104 152 198 -16 31 -578 595 -611 613 -38 20 -97 17 -135 -6z" fill="#ecddbc"/>
<path d="M6420 4821 c-19 -10 -44 -30 -55 -45 -19 -26 -20 -43 -23 -442 -3 -394 -2 -416 17 -459 27 -62 70 -87 139 -82 46 3 59 9 90 41 l37 36 0 444 0 444 -25 27 c-53 57 -118 70 -180 36z" fill="#ecddbc"/>
</g>
</svg>